<?xml version="1.0" encoding="utf-8"?>
<!-- Generator: Adobe Illustrator 24.2.1, SVG Export Plug-In . SVG Version: 6.00 Build 0)  -->
<svg version="1.1" id="Layer_1" xmlns="http://www.w3.org/2000/svg" xmlns:xlink="http://www.w3.org/1999/xlink" x="0px" y="0px"
	 viewBox="0 0 117.2 112.7" style="enable-background:new 0 0 117.2 112.7;" xml:space="preserve">
<style type="text/css">
	.st0{fill:#6CCCDE;}
</style>
<g>
	<g>
		<path class="st0" d="M58.6,49.6c3.7,0,6.7,3,6.7,6.7s-3,6.7-6.7,6.7s-6.7-3-6.7-6.7S54.9,49.6,58.6,49.6 M58.6,42.6
			c-7.6,0-13.7,6.2-13.7,13.7c0,7.6,6.2,13.7,13.7,13.7s13.7-6.2,13.7-13.7C72.3,48.8,66.2,42.6,58.6,42.6L58.6,42.6z"/>
	</g>
	<g>
		<path class="st0" d="M58.6,37.6c10.3,0,18.8,8.4,18.8,18.8s-8.4,18.8-18.8,18.8s-18.8-8.4-18.8-18.8S48.2,37.6,58.6,37.6
			 M58.6,30.6c-14.2,0-25.8,11.5-25.8,25.8c0,14.2,11.5,25.8,25.8,25.8s25.8-11.5,25.8-25.8C84.3,42.1,72.8,30.6,58.6,30.6
			L58.6,30.6z"/>
	</g>
	<g>
		<path class="st0" d="M58.6,25.6c17,0,30.8,13.8,30.8,30.8S75.5,87.1,58.6,87.1S27.8,73.3,27.8,56.4S41.6,25.6,58.6,25.6
			 M58.6,18.6c-20.9,0-37.8,16.9-37.8,37.8c0,20.9,16.9,37.8,37.8,37.8s37.8-16.9,37.8-37.8C96.3,35.5,79.4,18.6,58.6,18.6
			L58.6,18.6z"/>
	</g>
	<g>
		<path class="st0" d="M58.6,13.6c23.6,0,42.8,19.2,42.8,42.8c0,23.6-19.2,42.8-42.8,42.8c-23.6,0-42.8-19.2-42.8-42.8
			C15.8,32.8,35,13.6,58.6,13.6 M58.6,6.6C31.1,6.6,8.8,28.9,8.8,56.4s22.3,49.8,49.8,49.8s49.8-22.3,49.8-49.8S86.1,6.6,58.6,6.6
			L58.6,6.6z"/>
	</g>
</g>
</svg>
